<svg xmlns="http://www.w3.org/2000/svg" viewBox="0 0 485.99 485.99"><defs><style>.cls-1{fill:none;stroke:#fff;stroke-miterlimit:10;stroke-width:9px;}</style></defs><g id="Layer_2" data-name="Layer 2"><g id="Layer_1-2" data-name="Layer 1"><circle cx="243" cy="243" r="243"/><path class="cls-1" d="M286.92,442.38A13.17,13.17,0,0,1,274,432l-40.07-179.2-71.77-.39-28,125a13.26,13.26,0,0,1-25.86.06L79.43,252l-31.52-.17a13.25,13.25,0,0,1-12.62-17.07c7-23.21,13.89-47,20.38-69.3a13.26,13.26,0,0,1,25.66.74L96.2,231l49.13.27L185.12,54A13.26,13.26,0,0,1,211,54l39.78,177.89,73.11.4,26.92-117.9a13.26,13.26,0,0,1,25.84-.05L404.14,232.7l33.88.18a13.28,13.28,0,0,1,12.77,16.75c-7,25.72-14,51.15-20.94,76.55a13.26,13.26,0,0,1-25.7-.52l-16.73-72-46.78-.25-40.8,178.68A13.19,13.19,0,0,1,286.92,442.38Z"/></g></g></svg>